<svg width="349" height="89" viewBox="0 0 349 89" fill="none" xmlns="http://www.w3.org/2000/svg">
<path d="M118.787 54.3377C120.428 55.2648 122.09 56.105 123.77 56.8582C125.47 57.5922 127.227 58.2199 129.043 58.7414C130.858 59.2435 132.761 59.6298 134.75 59.9002C136.759 60.1706 138.893 60.3058 141.153 60.3058C143.876 60.3058 146.194 60.132 148.106 59.7843C150.018 59.4174 151.573 58.9249 152.77 58.3068C153.987 57.6694 154.866 56.9162 155.407 56.047C155.967 55.1779 156.247 54.2315 156.247 53.2078C156.247 51.5661 155.561 50.2721 154.19 49.3257C152.818 48.36 150.704 47.8771 147.845 47.8771C146.59 47.8771 145.267 47.964 143.876 48.1379C142.485 48.2924 141.075 48.4662 139.646 48.6593C138.236 48.8525 136.836 49.036 135.445 49.2098C134.074 49.3643 132.78 49.4416 131.563 49.4416C129.535 49.4416 127.584 49.1808 125.711 48.6593C123.857 48.1379 122.205 47.3556 120.757 46.3127C119.328 45.2697 118.188 43.966 117.338 42.4015C116.488 40.8371 116.063 39.0119 116.063 36.9259C116.063 35.6898 116.228 34.4634 116.556 33.2466C116.904 32.0298 117.444 30.8709 118.178 29.77C118.932 28.6498 119.897 27.6165 121.076 26.6701C122.254 25.7044 123.673 24.8739 125.334 24.1785C127.015 23.4832 128.946 22.9424 131.129 22.5562C133.33 22.1506 135.832 21.9478 138.632 21.9478C140.66 21.9478 142.698 22.0636 144.745 22.2954C146.792 22.5079 148.782 22.8169 150.713 23.2225C152.664 23.6281 154.537 24.1206 156.334 24.7C158.13 25.2601 159.801 25.8879 161.346 26.5832L157.319 33.9998C156.044 33.4397 154.673 32.9279 153.205 32.4644C151.737 31.9815 150.201 31.5662 148.598 31.2186C146.995 30.8709 145.334 30.6005 143.615 30.4074C141.916 30.1949 140.177 30.0887 138.4 30.0887C135.87 30.0887 133.784 30.2722 132.143 30.6392C130.52 31.0061 129.226 31.4793 128.26 32.0588C127.295 32.6189 126.619 33.2562 126.232 33.9709C125.865 34.6662 125.682 35.3615 125.682 36.0568C125.682 37.4088 126.29 38.5194 127.507 39.3885C128.724 40.2383 130.578 40.6632 133.07 40.6632C134.074 40.6632 135.223 40.5956 136.517 40.4604C137.831 40.3059 139.202 40.1418 140.631 39.9679C142.08 39.7941 143.548 39.6396 145.035 39.5044C146.541 39.3499 148 39.2726 149.41 39.2726C152.075 39.2726 154.431 39.572 156.479 40.1707C158.545 40.7695 160.274 41.629 161.664 42.7492C163.055 43.8501 164.108 45.1924 164.822 46.7762C165.537 48.3407 165.894 50.0983 165.894 52.049C165.894 54.6564 165.286 56.9838 164.069 59.0311C162.872 61.0591 161.153 62.778 158.912 64.188C156.691 65.5786 154.006 66.6409 150.858 67.3748C147.71 68.0895 144.204 68.4468 140.341 68.4468C137.792 68.4468 135.3 68.2826 132.867 67.9543C130.433 67.6452 128.096 67.201 125.856 66.6216C123.635 66.0228 121.51 65.3179 119.482 64.5067C117.473 63.6762 115.61 62.7684 113.891 61.7834L118.787 54.3377Z" fill="white"/>
<path d="M53.687 22.5271H62.8709L79.3267 39.0408L95.7824 22.5271H104.966V67.8093H95.7824V35.2455L79.3267 51.0929L62.8709 35.2455V67.8093H53.687V22.5271Z" fill="white"/>
<path d="M0.552734 22.5271H24.4251C27.9017 22.5271 30.9147 22.9037 33.4642 23.657C36.0137 24.4102 38.1286 25.5015 39.8089 26.9307C41.4893 28.3407 42.735 30.0693 43.5462 32.1166C44.3767 34.1639 44.792 36.472 44.792 39.0408C44.792 41.4551 44.3864 43.6858 43.5752 45.7332C42.764 47.7805 41.5182 49.5574 39.8379 51.0639C38.1769 52.5511 36.0716 53.7196 33.5221 54.5694C30.9727 55.3999 27.9596 55.8152 24.4831 55.8152L9.73665 55.7862V67.8093H0.552734V22.5271ZM24.6569 47.8481C26.3952 47.8481 27.9114 47.6453 29.2054 47.2397C30.5188 46.8148 31.61 46.2257 32.4792 45.4724C33.3676 44.6998 34.0243 43.7728 34.4492 42.6912C34.8934 41.5903 35.1156 40.3735 35.1156 39.0408C35.1156 36.3561 34.2368 34.2702 32.4792 32.783C30.7409 31.2764 28.1335 30.5232 24.6569 30.5232H9.73665V47.8481H24.6569Z" fill="white"/>
<path d="M285.41 59.1099H288.034L292.736 63.8281L297.437 59.1099H300.061V72.0476H297.437V62.7437L292.736 67.2715L288.034 62.7437V72.0476H285.41V59.1099Z" fill="white"/>
<path d="M271.636 59.1099H282.653V61.411H274.26V63.9936H281.693V66.154H274.26V69.7548H282.827V72.0476H271.636V59.1099Z" fill="white"/>
<path d="M261.769 61.411H256.993V59.1099H269.169V61.411H264.393V72.0476H261.769V61.411Z" fill="white"/>
<path d="M241.861 68.1984C242.33 68.4633 242.805 68.7033 243.285 68.9185C243.771 69.1282 244.273 69.3076 244.792 69.4566C245.31 69.6 245.854 69.7104 246.422 69.7877C246.996 69.8649 247.606 69.9035 248.252 69.9035C249.03 69.9035 249.692 69.8539 250.238 69.7545C250.784 69.6497 251.229 69.509 251.571 69.3324C251.919 69.1503 252.17 68.9351 252.324 68.6867C252.484 68.4384 252.564 68.168 252.564 67.8755C252.564 67.4065 252.368 67.0368 251.976 66.7664C251.585 66.4904 250.98 66.3525 250.164 66.3525C249.805 66.3525 249.427 66.3773 249.03 66.427C248.632 66.4711 248.229 66.5208 247.821 66.576C247.418 66.6312 247.018 66.6836 246.621 66.7332C246.229 66.7774 245.859 66.7995 245.512 66.7995C244.932 66.7995 244.375 66.725 243.84 66.576C243.31 66.427 242.838 66.2035 242.424 65.9055C242.016 65.6075 241.69 65.235 241.447 64.788C241.205 64.341 241.083 63.8196 241.083 63.2236C241.083 62.8704 241.13 62.52 241.224 62.1723C241.323 61.8247 241.478 61.4936 241.687 61.179C241.903 60.859 242.179 60.5637 242.515 60.2933C242.852 60.0174 243.257 59.7801 243.732 59.5815C244.212 59.3828 244.764 59.2283 245.388 59.1179C246.017 59.002 246.731 58.9441 247.531 58.9441C248.111 58.9441 248.693 58.9772 249.278 59.0434C249.863 59.1041 250.431 59.1924 250.983 59.3083C251.54 59.4242 252.076 59.5649 252.589 59.7305C253.102 59.8905 253.58 60.0698 254.021 60.2685L252.87 62.3875C252.506 62.2275 252.114 62.0813 251.695 61.9488C251.276 61.8109 250.837 61.6922 250.379 61.5929C249.921 61.4936 249.446 61.4163 248.955 61.3611C248.47 61.3004 247.973 61.2701 247.465 61.2701C246.742 61.2701 246.146 61.3225 245.677 61.4274C245.214 61.5322 244.844 61.6674 244.568 61.8329C244.292 61.993 244.099 62.1751 243.989 62.3793C243.884 62.5779 243.831 62.7766 243.831 62.9752C243.831 63.3615 244.005 63.6788 244.353 63.9272C244.7 64.17 245.23 64.2914 245.942 64.2914C246.229 64.2914 246.557 64.2721 246.927 64.2334C247.302 64.1893 247.694 64.1424 248.103 64.0927C248.516 64.0431 248.936 63.9989 249.361 63.9603C249.791 63.9161 250.208 63.8941 250.611 63.8941C251.372 63.8941 252.045 63.9796 252.63 64.1507C253.221 64.3217 253.715 64.5673 254.112 64.8874C254.509 65.2019 254.81 65.5854 255.014 66.0379C255.218 66.4849 255.321 66.9871 255.321 67.5444C255.321 68.2894 255.147 68.9544 254.799 69.5393C254.457 70.1188 253.966 70.6099 253.326 71.0127C252.691 71.4101 251.924 71.7136 251.025 71.9233C250.125 72.1274 249.123 72.2295 248.02 72.2295C247.291 72.2295 246.579 72.1826 245.884 72.0888C245.189 72.0005 244.521 71.8736 243.881 71.708C243.246 71.537 242.639 71.3356 242.06 71.1038C241.486 70.8665 240.954 70.6071 240.462 70.3257L241.861 68.1984Z" fill="white"/>
<path d="M231.406 68.8442L225.752 59.1099H228.724L232.706 66.4686L236.637 59.1099H239.609L234.03 68.8277V72.0476H231.406V68.8442Z" fill="white"/>
<path d="M211.432 68.1984C211.901 68.4633 212.376 68.7033 212.856 68.9185C213.341 69.1282 213.844 69.3076 214.362 69.4566C214.881 69.6 215.425 69.7104 215.993 69.7877C216.567 69.8649 217.177 69.9035 217.822 69.9035C218.6 69.9035 219.263 69.8539 219.809 69.7545C220.355 69.6497 220.8 69.509 221.142 69.3324C221.489 69.1503 221.74 68.9351 221.895 68.6867C222.055 68.4384 222.135 68.168 222.135 67.8755C222.135 67.4065 221.939 67.0368 221.547 66.7664C221.155 66.4904 220.551 66.3525 219.734 66.3525C219.376 66.3525 218.998 66.3773 218.6 66.427C218.203 66.4711 217.8 66.5208 217.392 66.576C216.989 66.6312 216.589 66.6836 216.192 66.7332C215.8 66.7774 215.43 66.7995 215.082 66.7995C214.503 66.7995 213.946 66.725 213.41 66.576C212.881 66.427 212.409 66.2035 211.995 65.9055C211.587 65.6075 211.261 65.235 211.018 64.788C210.775 64.341 210.654 63.8196 210.654 63.2236C210.654 62.8704 210.701 62.52 210.795 62.1723C210.894 61.8247 211.049 61.4936 211.258 61.179C211.473 60.859 211.749 60.5637 212.086 60.2933C212.423 60.0174 212.828 59.7801 213.303 59.5815C213.783 59.3828 214.335 59.2283 214.958 59.1179C215.587 59.002 216.302 58.9441 217.102 58.9441C217.682 58.9441 218.264 58.9772 218.849 59.0434C219.434 59.1041 220.002 59.1924 220.554 59.3083C221.111 59.4242 221.647 59.5649 222.16 59.7305C222.673 59.8905 223.15 60.0698 223.592 60.2685L222.441 62.3875C222.077 62.2275 221.685 62.0813 221.266 61.9488C220.846 61.8109 220.408 61.6922 219.95 61.5929C219.492 61.4936 219.017 61.4163 218.526 61.3611C218.04 61.3004 217.544 61.2701 217.036 61.2701C216.313 61.2701 215.717 61.3225 215.248 61.4274C214.785 61.5322 214.415 61.6674 214.139 61.8329C213.863 61.993 213.67 62.1751 213.559 62.3793C213.455 62.5779 213.402 62.7766 213.402 62.9752C213.402 63.3615 213.576 63.6788 213.924 63.9272C214.271 64.17 214.801 64.2914 215.513 64.2914C215.8 64.2914 216.128 64.2721 216.498 64.2334C216.873 64.1893 217.265 64.1424 217.673 64.0927C218.087 64.0431 218.507 63.9989 218.932 63.9603C219.362 63.9161 219.779 63.8941 220.181 63.8941C220.943 63.8941 221.616 63.9796 222.201 64.1507C222.792 64.3217 223.286 64.5673 223.683 64.8874C224.08 65.2019 224.381 65.5854 224.585 66.0379C224.789 66.4849 224.891 66.9871 224.891 67.5444C224.891 68.2894 224.718 68.9544 224.37 69.5393C224.028 70.1188 223.537 70.6099 222.896 71.0127C222.262 71.4101 221.495 71.7136 220.595 71.9233C219.696 72.1274 218.694 72.2295 217.591 72.2295C216.862 72.2295 216.15 72.1826 215.455 72.0888C214.76 72.0005 214.092 71.8736 213.452 71.708C212.817 71.537 212.21 71.3356 211.631 71.1038C211.057 70.8665 210.524 70.6071 210.033 70.3257L211.432 68.1984Z" fill="white"/>
<path d="M333.984 44.2683C333.984 43.3578 334.155 42.508 334.498 41.7189C334.84 40.9242 335.339 40.2344 335.996 39.6495C336.652 39.0645 337.458 38.6038 338.413 38.2671C339.373 37.9305 340.471 37.7622 341.707 37.7622C342.154 37.7622 342.601 37.787 343.048 37.8367C343.501 37.8809 343.945 37.9526 344.381 38.0519C344.822 38.1513 345.25 38.2782 345.664 38.4327C346.083 38.5817 346.481 38.761 346.856 38.9707L345.647 40.9573C345.421 40.8249 345.165 40.7062 344.878 40.6014C344.591 40.491 344.282 40.4 343.951 40.3282C343.625 40.251 343.286 40.193 342.932 40.1544C342.585 40.1158 342.234 40.0965 341.881 40.0965C341.064 40.0965 340.336 40.2013 339.696 40.411C339.056 40.6152 338.515 40.9049 338.073 41.2802C337.632 41.6499 337.295 42.0941 337.064 42.6128C336.832 43.1316 336.716 43.7 336.716 44.318C336.716 44.9581 336.837 45.5458 337.08 46.0811C337.323 46.6164 337.668 47.0772 338.115 47.4635C338.562 47.8498 339.103 48.1533 339.737 48.374C340.372 48.5892 341.081 48.6968 341.865 48.6968C342.488 48.6968 343.059 48.6278 343.578 48.4899C344.097 48.3464 344.549 48.145 344.936 47.8856C345.322 47.6263 345.636 47.3145 345.879 46.9503C346.122 46.5805 346.282 46.1667 346.359 45.7086H341.84V43.5482H348.718V43.5565L348.727 43.5482C348.865 44.2104 348.906 44.8561 348.851 45.4851C348.801 46.1087 348.658 46.6992 348.42 47.2565C348.189 47.8084 347.869 48.3161 347.46 48.7796C347.052 49.2431 346.563 49.6432 345.995 49.9798C345.427 50.3109 344.781 50.5703 344.058 50.7579C343.335 50.94 342.543 51.0311 341.682 51.0311C340.479 51.0311 339.401 50.8545 338.446 50.5013C337.497 50.1482 336.691 49.6653 336.029 49.0528C335.367 48.4402 334.859 47.7228 334.506 46.9006C334.158 46.0784 333.984 45.2009 333.984 44.2683Z" fill="white"/>
<path d="M318.24 37.9194H320.864L328.927 42.141V37.9194H331.551V50.8572H328.927V44.9222L320.864 40.7255V50.8572H318.24V37.9194Z" fill="white"/>
<path d="M312.602 37.9194H315.243V50.8572H312.602V37.9194Z" fill="white"/>
<path d="M297.761 37.9194H304.341C305.335 37.9194 306.196 38.0243 306.924 38.234C307.652 38.4382 308.257 38.7361 308.737 39.128C309.217 39.5198 309.573 39.9971 309.805 40.56C310.042 41.1228 310.16 41.7602 310.16 42.4721C310.16 42.9522 310.103 43.4102 309.987 43.8461C309.871 44.2766 309.691 44.6739 309.449 45.0381C309.211 45.4023 308.911 45.7279 308.546 46.0149C308.182 46.2963 307.754 46.5308 307.263 46.7184L310.078 50.8572H306.866L304.432 47.182H304.358L300.385 47.1737V50.8572H297.761V37.9194ZM304.408 44.9057C304.904 44.9057 305.337 44.8477 305.707 44.7318C306.082 44.616 306.394 44.4532 306.643 44.2435C306.896 44.0338 307.084 43.7799 307.205 43.4819C307.332 43.1784 307.396 42.8418 307.396 42.4721C307.396 41.7492 307.147 41.1918 306.651 40.8C306.154 40.4027 305.406 40.204 304.408 40.204H300.385V44.9057H304.408Z" fill="white"/>
<path d="M280.386 44.3511C280.386 43.3743 280.566 42.4804 280.924 41.6692C281.283 40.858 281.785 40.1626 282.431 39.5832C283.082 38.9983 283.86 38.5458 284.765 38.2257C285.676 37.9056 286.683 37.7456 287.786 37.7456C288.884 37.7456 289.889 37.9056 290.799 38.2257C291.71 38.5458 292.488 38.9983 293.134 39.5832C293.785 40.1626 294.29 40.858 294.648 41.6692C295.007 42.4804 295.186 43.3743 295.186 44.3511C295.186 45.3333 295.007 46.2356 294.648 47.0578C294.29 47.8745 293.785 48.5781 293.134 49.1686C292.488 49.7591 291.71 50.2198 290.799 50.5509C289.889 50.8765 288.884 51.0393 287.786 51.0393C286.683 51.0393 285.676 50.8765 284.765 50.5509C283.86 50.2198 283.082 49.7591 282.431 49.1686C281.785 48.5781 281.283 47.8745 280.924 47.0578C280.566 46.2356 280.386 45.3333 280.386 44.3511ZM283.01 44.3511C283.01 45.0188 283.129 45.6203 283.366 46.1556C283.609 46.6909 283.943 47.1489 284.368 47.5296C284.798 47.9049 285.303 48.1946 285.883 48.3988C286.467 48.603 287.102 48.7051 287.786 48.7051C288.471 48.7051 289.102 48.603 289.682 48.3988C290.267 48.1946 290.772 47.9049 291.197 47.5296C291.622 47.1489 291.955 46.6909 292.198 46.1556C292.441 45.6203 292.562 45.0188 292.562 44.3511C292.562 43.6834 292.441 43.0846 292.198 42.5549C291.955 42.0251 291.622 41.5781 291.197 41.2139C290.772 40.8442 290.267 40.5627 289.682 40.3696C289.102 40.1764 288.471 40.0799 287.786 40.0799C287.102 40.0799 286.467 40.1764 285.883 40.3696C285.303 40.5627 284.798 40.8442 284.368 41.2139C283.943 41.5781 283.609 42.0251 283.366 42.5549C283.129 43.0846 283.01 43.6834 283.01 44.3511Z" fill="white"/>
<path d="M271.28 40.2206H266.503V37.9194H278.68V40.2206H273.904V50.8572H271.28V40.2206Z" fill="white"/>
<path d="M261.728 37.9194H264.368V50.8572H261.728V37.9194Z" fill="white"/>
<path d="M245.429 37.9194H248.053L256.115 42.141V37.9194H258.739V50.8572H256.115V44.9222L248.053 40.7255V50.8572H245.429V37.9194Z" fill="white"/>
<path d="M228.07 44.3511C228.07 43.3743 228.249 42.4804 228.608 41.6692C228.967 40.858 229.469 40.1626 230.114 39.5832C230.766 38.9983 231.544 38.5458 232.449 38.2257C233.359 37.9056 234.366 37.7456 235.47 37.7456C236.568 37.7456 237.572 37.9056 238.483 38.2257C239.393 38.5458 240.172 38.9983 240.817 39.5832C241.468 40.1626 241.973 40.858 242.332 41.6692C242.691 42.4804 242.87 43.3743 242.87 44.3511C242.87 45.3333 242.691 46.2356 242.332 47.0578C241.973 47.8745 241.468 48.5781 240.817 49.1686C240.172 49.7591 239.393 50.2198 238.483 50.5509C237.572 50.8765 236.568 51.0393 235.47 51.0393C234.366 51.0393 233.359 50.8765 232.449 50.5509C231.544 50.2198 230.766 49.7591 230.114 49.1686C229.469 48.5781 228.967 47.8745 228.608 47.0578C228.249 46.2356 228.07 45.3333 228.07 44.3511ZM230.694 44.3511C230.694 45.0188 230.812 45.6203 231.05 46.1556C231.293 46.6909 231.626 47.1489 232.051 47.5296C232.482 47.9049 232.987 48.1946 233.566 48.3988C234.151 48.603 234.786 48.7051 235.47 48.7051C236.154 48.7051 236.786 48.603 237.365 48.3988C237.95 48.1946 238.455 47.9049 238.88 47.5296C239.305 47.1489 239.639 46.6909 239.882 46.1556C240.125 45.6203 240.246 45.0188 240.246 44.3511C240.246 43.6834 240.125 43.0846 239.882 42.5549C239.639 42.0251 239.305 41.5781 238.88 41.2139C238.455 40.8442 237.95 40.5627 237.365 40.3696C236.786 40.1764 236.154 40.0799 235.47 40.0799C234.786 40.0799 234.151 40.1764 233.566 40.3696C232.987 40.5627 232.482 40.8442 232.051 41.2139C231.626 41.5781 231.293 42.0251 231.05 42.5549C230.812 43.0846 230.694 43.6834 230.694 44.3511Z" fill="white"/>
<path d="M210.836 37.9194H213.46L218.162 42.6376L222.863 37.9194H225.487V50.8572H222.863V41.5533L218.162 46.0811L213.46 41.5533V50.8572H210.836V37.9194Z" fill="white"/>
<path d="M303.994 25.8175C304.463 26.0824 304.937 26.3224 305.417 26.5377C305.903 26.7474 306.405 26.9267 306.924 27.0757C307.443 27.2192 307.986 27.3295 308.555 27.4068C309.128 27.4841 309.738 27.5227 310.384 27.5227C311.162 27.5227 311.824 27.473 312.37 27.3737C312.917 27.2688 313.361 27.1281 313.703 26.9515C314.051 26.7694 314.302 26.5542 314.456 26.3059C314.616 26.0576 314.696 25.7872 314.696 25.4947C314.696 25.0256 314.501 24.6559 314.109 24.3855C313.717 24.1096 313.113 23.9716 312.296 23.9716C311.937 23.9716 311.559 23.9965 311.162 24.0461C310.765 24.0903 310.362 24.1399 309.953 24.1951C309.551 24.2503 309.151 24.3027 308.753 24.3524C308.361 24.3965 307.992 24.4186 307.644 24.4186C307.065 24.4186 306.507 24.3441 305.972 24.1951C305.442 24.0461 304.97 23.8226 304.557 23.5246C304.148 23.2266 303.823 22.8542 303.58 22.4072C303.337 21.9602 303.216 21.4387 303.216 20.8427C303.216 20.4895 303.262 20.1391 303.356 19.7915C303.456 19.4438 303.61 19.1127 303.82 18.7982C304.035 18.4781 304.311 18.1829 304.648 17.9125C304.984 17.6366 305.39 17.3993 305.864 17.2006C306.344 17.0019 306.896 16.8474 307.52 16.7371C308.149 16.6212 308.864 16.5632 309.664 16.5632C310.243 16.5632 310.825 16.5963 311.41 16.6626C311.995 16.7233 312.564 16.8116 313.115 16.9274C313.673 17.0433 314.208 17.184 314.721 17.3496C315.235 17.5096 315.712 17.689 316.153 17.8876L315.003 20.0067C314.639 19.8467 314.247 19.7004 313.827 19.568C313.408 19.43 312.969 19.3114 312.511 19.212C312.053 19.1127 311.579 19.0355 311.087 18.9803C310.602 18.9196 310.105 18.8892 309.598 18.8892C308.875 18.8892 308.279 18.9416 307.81 19.0465C307.346 19.1513 306.976 19.2865 306.7 19.4521C306.424 19.6121 306.231 19.7942 306.121 19.9984C306.016 20.1971 305.964 20.3957 305.964 20.5944C305.964 20.9807 306.138 21.298 306.485 21.5463C306.833 21.7891 307.363 21.9105 308.074 21.9105C308.361 21.9105 308.69 21.8912 309.059 21.8526C309.435 21.8084 309.827 21.7615 310.235 21.7119C310.649 21.6622 311.068 21.618 311.493 21.5794C311.924 21.5353 312.34 21.5132 312.743 21.5132C313.505 21.5132 314.178 21.5987 314.763 21.7698C315.353 21.9409 315.847 22.1864 316.244 22.5065C316.642 22.821 316.942 23.2046 317.147 23.6571C317.351 24.1041 317.453 24.6062 317.453 25.1636C317.453 25.9086 317.279 26.5735 316.931 27.1585C316.589 27.7379 316.098 28.229 315.458 28.6319C314.823 29.0292 314.056 29.3327 313.157 29.5424C312.257 29.7466 311.256 29.8487 310.152 29.8487C309.424 29.8487 308.712 29.8018 308.017 29.7079C307.321 29.6197 306.653 29.4927 306.013 29.3272C305.379 29.1561 304.772 28.9547 304.192 28.7229C303.618 28.4856 303.086 28.2263 302.595 27.9448L303.994 25.8175Z" fill="white"/>
<path d="M287.381 25.8175C287.85 26.0824 288.324 26.3224 288.805 26.5377C289.29 26.7474 289.792 26.9267 290.311 27.0757C290.83 27.2192 291.373 27.3295 291.942 27.4068C292.516 27.4841 293.125 27.5227 293.771 27.5227C294.549 27.5227 295.211 27.473 295.758 27.3737C296.304 27.2688 296.748 27.1281 297.09 26.9515C297.438 26.7694 297.689 26.5542 297.844 26.3059C298.004 26.0576 298.084 25.7872 298.084 25.4947C298.084 25.0256 297.888 24.6559 297.496 24.3855C297.104 24.1096 296.5 23.9716 295.683 23.9716C295.325 23.9716 294.946 23.9965 294.549 24.0461C294.152 24.0903 293.749 24.1399 293.341 24.1951C292.938 24.2503 292.538 24.3027 292.14 24.3524C291.749 24.3965 291.379 24.4186 291.031 24.4186C290.452 24.4186 289.894 24.3441 289.359 24.1951C288.829 24.0461 288.358 23.8226 287.944 23.5246C287.535 23.2266 287.21 22.8542 286.967 22.4072C286.724 21.9602 286.603 21.4387 286.603 20.8427C286.603 20.4895 286.65 20.1391 286.743 19.7915C286.843 19.4438 286.997 19.1127 287.207 18.7982C287.422 18.4781 287.698 18.1829 288.035 17.9125C288.371 17.6366 288.777 17.3993 289.252 17.2006C289.732 17.0019 290.283 16.8474 290.907 16.7371C291.536 16.6212 292.251 16.5632 293.051 16.5632C293.63 16.5632 294.213 16.5963 294.798 16.6626C295.382 16.7233 295.951 16.8116 296.503 16.9274C297.06 17.0433 297.595 17.184 298.109 17.3496C298.622 17.5096 299.099 17.689 299.541 17.8876L298.39 20.0067C298.026 19.8467 297.634 19.7004 297.215 19.568C296.795 19.43 296.356 19.3114 295.898 19.212C295.44 19.1127 294.966 19.0355 294.475 18.9803C293.989 18.9196 293.492 18.8892 292.985 18.8892C292.262 18.8892 291.666 18.9416 291.197 19.0465C290.733 19.1513 290.364 19.2865 290.088 19.4521C289.812 19.6121 289.619 19.7942 289.508 19.9984C289.403 20.1971 289.351 20.3957 289.351 20.5944C289.351 20.9807 289.525 21.298 289.872 21.5463C290.22 21.7891 290.75 21.9105 291.462 21.9105C291.749 21.9105 292.077 21.8912 292.447 21.8526C292.822 21.8084 293.214 21.7615 293.622 21.7119C294.036 21.6622 294.455 21.618 294.88 21.5794C295.311 21.5353 295.727 21.5132 296.13 21.5132C296.892 21.5132 297.565 21.5987 298.15 21.7698C298.74 21.9409 299.234 22.1864 299.632 22.5065C300.029 22.821 300.33 23.2046 300.534 23.6571C300.738 24.1041 300.84 24.6062 300.84 25.1636C300.84 25.9086 300.666 26.5735 300.319 27.1585C299.976 27.7379 299.485 28.229 298.845 28.6319C298.211 29.0292 297.444 29.3327 296.544 29.5424C295.645 29.7466 294.643 29.8487 293.539 29.8487C292.811 29.8487 292.099 29.8018 291.404 29.7079C290.708 29.6197 290.041 29.4927 289.401 29.3272C288.766 29.1561 288.159 28.9547 287.579 28.7229C287.006 28.4856 286.473 28.2263 285.982 27.9448L287.381 25.8175Z" fill="white"/>
<path d="M273.01 16.729H284.027V19.0302H275.634V21.6127H283.067V23.7732H275.634V27.3739H284.201V29.6668H273.01V16.729Z" fill="white"/>
<path d="M257.001 23.1191C257.001 22.1975 257.175 21.3394 257.522 20.5447C257.87 19.7446 258.372 19.052 259.029 18.4671C259.691 17.8766 260.497 17.4131 261.446 17.0765C262.401 16.7398 263.48 16.5715 264.683 16.5715C265.737 16.5715 266.702 16.6791 267.58 16.8944C268.463 17.1041 269.282 17.4269 270.038 17.8628L268.83 19.8494C268.603 19.7004 268.341 19.568 268.043 19.4521C267.751 19.3362 267.436 19.2397 267.1 19.1624C266.768 19.0796 266.424 19.0162 266.065 18.972C265.712 18.9279 265.361 18.9058 265.014 18.9058C264.175 18.9058 263.427 19.0106 262.77 19.2203C262.114 19.4245 261.559 19.7142 261.107 20.0895C260.66 20.4592 260.318 20.9034 260.08 21.4222C259.848 21.9354 259.733 22.501 259.733 23.1191C259.733 23.7592 259.854 24.3469 260.097 24.8822C260.34 25.4175 260.69 25.881 261.148 26.2728C261.612 26.6591 262.174 26.9626 262.837 27.1833C263.504 27.3985 264.258 27.5062 265.096 27.5062C265.477 27.5062 265.855 27.4786 266.23 27.4234C266.606 27.3682 266.967 27.2937 267.315 27.1999C267.668 27.1006 268.007 26.9847 268.333 26.8522C268.658 26.7143 268.962 26.5653 269.243 26.4052L270.452 28.3918C269.746 28.8444 268.929 29.2003 268.002 29.4596C267.075 29.7135 266.09 29.8404 265.047 29.8404C263.717 29.8404 262.55 29.6693 261.545 29.3272C260.541 28.9796 259.702 28.505 259.029 27.9035C258.356 27.2965 257.848 26.5846 257.506 25.7679C257.169 24.9456 257.001 24.0627 257.001 23.1191Z" fill="white"/>
<path d="M240.413 23.1606C240.413 22.1839 240.592 21.2899 240.951 20.4787C241.31 19.6675 241.812 18.9722 242.458 18.3928C243.109 17.8078 243.887 17.3553 244.792 17.0353C245.702 16.7152 246.71 16.5552 247.813 16.5552C248.911 16.5552 249.916 16.7152 250.826 17.0353C251.737 17.3553 252.515 17.8078 253.16 18.3928C253.812 18.9722 254.317 19.6675 254.675 20.4787C255.034 21.2899 255.213 22.1839 255.213 23.1606C255.213 24.1429 255.034 25.0452 254.675 25.8674C254.317 26.6841 253.812 27.3877 253.16 27.9782C252.515 28.5686 251.737 29.0294 250.826 29.3605C249.916 29.6861 248.911 29.8489 247.813 29.8489C246.71 29.8489 245.702 29.6861 244.792 29.3605C243.887 29.0294 243.109 28.5686 242.458 27.9782C241.812 27.3877 241.31 26.6841 240.951 25.8674C240.592 25.0452 240.413 24.1429 240.413 23.1606ZM243.037 23.1606C243.037 23.8284 243.156 24.4299 243.393 24.9651C243.636 25.5004 243.97 25.9584 244.395 26.3392C244.825 26.7145 245.33 27.0042 245.909 27.2084C246.494 27.4125 247.129 27.5146 247.813 27.5146C248.497 27.5146 249.129 27.4125 249.709 27.2084C250.294 27.0042 250.799 26.7145 251.224 26.3392C251.648 25.9584 251.982 25.5004 252.225 24.9651C252.468 24.4299 252.589 23.8284 252.589 23.1606C252.589 22.4929 252.468 21.8942 252.225 21.3644C251.982 20.8347 251.648 20.3877 251.224 20.0235C250.799 19.6537 250.294 19.3723 249.709 19.1792C249.129 18.986 248.497 18.8894 247.813 18.8894C247.129 18.8894 246.494 18.986 245.909 19.1792C245.33 19.3723 244.825 19.6537 244.395 20.0235C243.97 20.3877 243.636 20.8347 243.393 21.3644C243.156 21.8942 243.037 22.4929 243.037 23.1606Z" fill="white"/>
<path d="M226 16.729H232.581C233.574 16.729 234.435 16.8339 235.164 17.0436C235.892 17.2477 236.496 17.5457 236.976 17.9375C237.457 18.3293 237.813 18.8067 238.044 19.3695C238.282 19.9324 238.4 20.5698 238.4 21.2816C238.4 21.7617 238.342 22.2198 238.226 22.6557C238.111 23.0861 237.931 23.4835 237.688 23.8477C237.451 24.2119 237.15 24.5375 236.786 24.8244C236.422 25.1059 235.994 25.3404 235.503 25.528L238.317 29.6668H235.106L232.672 25.9916H232.598L228.624 25.9833V29.6668H226V16.729ZM232.647 23.7152C233.144 23.7152 233.577 23.6573 233.947 23.5414C234.322 23.4255 234.634 23.2627 234.882 23.053C235.136 22.8433 235.324 22.5895 235.445 22.2915C235.572 21.988 235.636 21.6514 235.636 21.2816C235.636 20.5587 235.387 20.0014 234.891 19.6096C234.394 19.2123 233.646 19.0136 232.647 19.0136H228.624V23.7152H232.647Z" fill="white"/>
<path d="M210.828 16.729H217.648C218.642 16.729 219.502 16.8366 220.231 17.0518C220.959 17.267 221.564 17.5788 222.044 17.9872C222.524 18.39 222.88 18.8839 223.111 19.4689C223.349 20.0538 223.467 20.7133 223.467 21.4472C223.467 22.137 223.352 22.7744 223.12 23.3593C222.888 23.9443 222.532 24.4519 222.052 24.8824C221.577 25.3073 220.976 25.6411 220.247 25.884C219.519 26.1212 218.658 26.2399 217.665 26.2399L213.452 26.2316V29.6668H210.828V16.729ZM217.715 23.9636C218.211 23.9636 218.644 23.9056 219.014 23.7897C219.389 23.6683 219.701 23.5 219.949 23.2848C220.203 23.0641 220.391 22.7992 220.512 22.4902C220.639 22.1756 220.703 21.828 220.703 21.4472C220.703 20.6801 220.452 20.0842 219.949 19.6592C219.453 19.2288 218.708 19.0136 217.715 19.0136H213.452V23.9636H217.715Z" fill="white"/>
<rect x="187.8" width="4.2381" height="89" fill="white"/>
</svg>
